# xmcd
#
# Track frame offsets:
#	150
#	19759
#	31772
#	41653
#	55967
#	68698
#	86051
#	105222
#	130872
#	144039
#	159555
#	177683
#	187368
#	204429
#	218619
#	229679
#	240943
#	256701
#	269649
#	283467
#	295519
#
# Disc length: 4147 seconds
#
# Revision: 0
# Processed by: cddbd v1.5.2PL0 Copyright (c) Steve Scherf et al.
# Submitted via: audiograbber 1.83.01
#
DISCID=2b103115
DTITLE=Yves Montand - Une etoile a l'etoile CD 2
DYEAR=2007
DGENRE=Chanson francaise
TTITLE0=Tea for two - I want to be happy - Hallelujah
TTITLE1=Toi, tu n'ressemble a personne
TTITLE2=Le chemin des oliviers
TTITLE3=Les routiers
TTITLE4=Donne-moi des sous
TTITLE5=Les cireurs de souliers de Broadway
TTITLE6=Dis-moi Jo
TTITLE7=Le chef d'orchestre est amoureux
TTITLE8=C'est a l'aube
TTITLE9=Barbara
TTITLE10=A Paris
TTITLE11=Les feuilles mortes
TTITLE12=C'est si bon
TTITLE13=Premiers pas
TTITLE14=Donne-moi des sous
TTITLE15=La goualante du pauvre Jean
TTITLE16=Faubourg Saint-Martin
TTITLE17=Mon pot' le gitan
TTITLE18=Neige sur la ville
TTITLE19=Coeur de mon coeur
TTITLE20=La tete a l'ombre
EXTD=FREMEAUX - Y. MONTAND VOL3 CD2 1953 1954
EXTT0=Orchestral
EXTT1=
EXTT2=
EXTT3=
EXTT4=
EXTT5=
EXTT6=
EXTT7=
EXTT8=
EXTT9=
EXTT10=
EXTT11=
EXTT12=
EXTT13=
EXTT14=
EXTT15=
EXTT16=
EXTT17=
EXTT18=
EXTT19=
EXTT20=
PLAYORDER=
